<mxfile host="app.diagrams.net" modified="2020-10-29T13:44:51.942Z" agent="5.0 (Windows NT 10.0; Win64; x64) AppleWebKit/537.36 (KHTML, like Gecko) Chrome/86.0.4240.111 Safari/537.36" etag="772pjDumyUqXVNbB5naa" version="13.8.6" type="github">
  <diagram id="5DXn_c3FQQyoO7A-_zY0" name="Page-1">
    <mxGraphModel dx="499" dy="347" grid="1" gridSize="10" guides="1" tooltips="1" connect="1" arrows="1" fold="1" page="1" pageScale="1" pageWidth="413" pageHeight="583" math="0" shadow="0">
      <root>
        <mxCell id="0" />
        <mxCell id="1" parent="0" />
        <mxCell id="iXFku20Lz9yMFXt4Zh9c-1" value="Tensor&lt;T,Allocator&gt;" style="swimlane;fontStyle=1;align=center;verticalAlign=top;childLayout=stackLayout;horizontal=1;startSize=26;horizontalStack=0;resizeParent=1;resizeParentMax=0;resizeLast=0;collapsible=1;marginBottom=0;" vertex="1" parent="1">
          <mxGeometry x="47" y="180" width="263" height="280" as="geometry" />
        </mxCell>
        <mxCell id="iXFku20Lz9yMFXt4Zh9c-2" value="+ shape: vector&lt;int&gt;&#xa;+ data: vector&lt;T&gt;&#xa;+ data_type: int&#xa;+ dim_num: int&#xa;+ lay_out: int&#xa;+ elem_num: int" style="text;strokeColor=none;fillColor=none;align=left;verticalAlign=top;spacingLeft=4;spacingRight=4;overflow=hidden;rotatable=0;points=[[0,0.5],[1,0.5]];portConstraint=eastwest;" vertex="1" parent="iXFku20Lz9yMFXt4Zh9c-1">
          <mxGeometry y="26" width="263" height="84" as="geometry" />
        </mxCell>
        <mxCell id="iXFku20Lz9yMFXt4Zh9c-3" value="" style="line;strokeWidth=1;fillColor=none;align=left;verticalAlign=middle;spacingTop=-1;spacingLeft=3;spacingRight=3;rotatable=0;labelPosition=right;points=[];portConstraint=eastwest;" vertex="1" parent="iXFku20Lz9yMFXt4Zh9c-1">
          <mxGeometry y="110" width="263" height="70" as="geometry" />
        </mxCell>
        <mxCell id="iXFku20Lz9yMFXt4Zh9c-4" value="+ Tensor&lt;T&gt;(initializer_list)&#xa;+ Tensor&lt;T&gt;(vector data, vector shape)" style="text;strokeColor=none;fillColor=none;align=left;verticalAlign=top;spacingLeft=4;spacingRight=4;overflow=hidden;rotatable=0;points=[[0,0.5],[1,0.5]];portConstraint=eastwest;" vertex="1" parent="iXFku20Lz9yMFXt4Zh9c-1">
          <mxGeometry y="180" width="263" height="100" as="geometry" />
        </mxCell>
      </root>
    </mxGraphModel>
  </diagram>
</mxfile>
